<!DOCTYPE svg PUBLIC "-//W3C//DTD SVG 1.1//EN" "http://www.w3.org/Graphics/SVG/1.1/DTD/svg11.dtd">
<!-- Uploaded to: SVG Repo, www.svgrepo.com, Transformed by: SVG Repo Mixer Tools -->
<svg width="800px" height="800px" viewBox="-40 -40 480.00 480.00" fill="none" xmlns="http://www.w3.org/2000/svg">
<g id="SVGRepo_bgCarrier" stroke-width="0">
<path transform="translate(-40, -40), scale(15)" d="M16,25.653364143873517C19.0775236091154,25.352236896022376,22.0396706630602,24.736954507442398,24.26994313026469,22.595059573956938C26.998995988665072,19.974149090338507,29.644200192333674,16.746377199522755,29.18531092635904,12.990538823253408C28.68245320048171,8.874834916686087,25.758435488401332,5.284994688354323,21.95365571572178,3.6371065184785394C18.304383298045128,2.05657013923149,13.928230953310708,2.6677958289874253,10.693872013697758,4.981711703492106C7.945967524117254,6.947609718764313,8.297010468800895,10.779067139149854,7.412647959858303,14.039992934546715C6.440594350101096,17.62426370418387,3.208839618107533,21.453717191028698,5.416846349772214,24.43978340651033C7.637977323038546,27.443598596163323,12.281939140641047,26.017166205571957,16,25.653364143873517" fill="#fe892a" strokewidth="0"/>
</g>
<g id="SVGRepo_tracerCarrier" stroke-linecap="round" stroke-linejoin="round"/>
<g id="SVGRepo_iconCarrier"> <path d="M97.8321 310.687C93.8478 250.409 91.4278 163.827 124.259 127.664C140.43 109.851 164.023 111.991 202.406 111.991C229.619 111.991 264.358 110.277 281.616 131.852C311.146 168.764 298.683 264.684 298.683 311.051" stroke="#000000" stroke-opacity="0.9" stroke-width="16" stroke-linecap="round" stroke-linejoin="round"/> <path d="M144.124 311.051C136.474 262.469 134.416 183.062 194.663 169.701C207.312 166.893 221.213 165.153 232.963 171.017C266.992 188.002 262.677 253.226 262.677 283.72C262.677 292.926 260.169 316.401 260.169 309.948" stroke="#000000" stroke-opacity="0.9" stroke-width="16" stroke-linecap="round" stroke-linejoin="round"/> <path d="M183.462 181.24C200.402 201.868 210.883 201.868 224.922 170.996" stroke="#000000" stroke-opacity="0.9" stroke-width="16" stroke-linecap="round" stroke-linejoin="round"/> <path d="M204.051 203.804C202.763 220.798 206.354 237.682 206.354 254.379" stroke="#000000" stroke-opacity="0.9" stroke-width="16" stroke-linecap="round" stroke-linejoin="round"/> <path d="M152.961 259.282C187.589 272.193 219.445 257.459 251.85 248.804" stroke="#000000" stroke-opacity="0.9" stroke-width="16" stroke-linecap="round" stroke-linejoin="round"/> <path d="M134.745 112.357C117.202 62.5071 50.6561 130.859 104.853 148.95" stroke="#000000" stroke-opacity="0.9" stroke-width="16" stroke-linecap="round" stroke-linejoin="round"/> <path d="M271.369 109.451C289.331 54.1644 344.696 121.514 296.13 135.982" stroke="#000000" stroke-opacity="0.9" stroke-width="16" stroke-linecap="round" stroke-linejoin="round"/> <path d="M178.985 145.605C178.272 142.3 179.24 139.552 179.368 136.527" stroke="#000000" stroke-opacity="0.9" stroke-width="16" stroke-linecap="round" stroke-linejoin="round"/> <path d="M222.711 142.102C222.711 139.51 222.711 136.914 222.711 134.322" stroke="#000000" stroke-opacity="0.9" stroke-width="16" stroke-linecap="round" stroke-linejoin="round"/> </g>
</svg>