<!DOCTYPE svg PUBLIC "-//W3C//DTD SVG 1.1//EN" "http://www.w3.org/Graphics/SVG/1.1/DTD/svg11.dtd">
<!-- Uploaded to: SVG Repo, www.svgrepo.com, Transformed by: SVG Repo Mixer Tools -->
<svg fill="#ffffff" height="199px" width="199px" version="1.1" xmlns="http://www.w3.org/2000/svg" viewBox="-23.56 -23.56 282.76 282.76" xmlns:xlink="http://www.w3.org/1999/xlink" enable-background="new 0 0 235.643 235.643" transform="rotate(180)" stroke="#ffffff" stroke-width="0.00235643">
<g id="SVGRepo_bgCarrier" stroke-width="0" transform="translate(0,0), scale(1)">
<path transform="translate(-23.56, -23.56), scale(8.83625)" d="M16,31.523616294066112C19.15886228161011,31.7471776312882,21.83255272752968,29.412885678535226,24.335994277242392,27.473511812347592C26.76482865189785,25.591934863988026,29.371234522460043,23.567430545808026,30.117476160129435,20.587046065524554C30.8447913511926,17.682251159562178,29.353610666848148,14.799443241877023,28.201426834494562,12.035516099327996C27.143153259143798,9.49686646979843,25.982517417743605,6.9394954374312325,23.7554764145089,5.32550247842935C21.530069854569284,3.7126940418346974,18.73947843799851,3.413838576095567,16,3.192833377255333C13.017070552688924,2.952187965893372,9.798868836404063,2.3822924681419066,7.278770665214493,3.996257619318385C4.707600671313987,5.642931076466772,3.5814741419090605,8.756290012228844,2.733234249547218,11.689366502369754C1.9087656513029732,14.54024569839094,1.4599175019046273,17.609425959553768,2.5427902999970797,20.372512487867468C3.593275463060247,23.05295788031461,6.2625661668129595,24.514394473169038,8.479345184941046,26.351293317551615C10.880859774930412,28.341270369411497,12.888922695157113,31.303436830554507,16,31.523616294066112" fill="#fb883c" strokewidth="0"/>
</g>
<g id="SVGRepo_tracerCarrier" stroke-linecap="round" stroke-linejoin="round" stroke="#171717" stroke-width="12.253436"> <path d="m164.93,115.477c1.957-3.766 4.12-7.582 6.212-11.273 8.977-15.84 18.259-32.22 18.259-54.792 0-16.478-7.781-29.743-22.503-38.36-12.35-7.231-29.32-11.052-49.077-11.052s-36.727,3.821-49.076,11.051c-14.722,8.617-22.503,21.883-22.503,38.36 0,22.574 9.283,38.954 18.261,54.795 2.091,3.69 4.254,7.506 6.209,11.271 3.162,6.087 3.329,13.088 0.46,19.208-4.505,9.604-6.603,18.372-6.603,27.593 0,11.667 5.126,22.478 14.503,30.732-0.019,0.31-0.027,0.619-0.027,0.927v25.039c0,9.19 7.477,16.667 16.667,16.667h44.22c9.19,0 16.667-7.477 16.667-16.667v-25.039c0-0.309-0.009-0.617-0.027-0.928 9.377-8.254 14.503-19.065 14.503-30.731 0-9.221-2.098-17.989-6.602-27.593-2.872-6.122-2.705-13.122 0.457-19.208z"/> </g>
<g id="SVGRepo_iconCarrier"> <path d="m164.93,115.477c1.957-3.766 4.12-7.582 6.212-11.273 8.977-15.84 18.259-32.22 18.259-54.792 0-16.478-7.781-29.743-22.503-38.36-12.35-7.231-29.32-11.052-49.077-11.052s-36.727,3.821-49.076,11.051c-14.722,8.617-22.503,21.883-22.503,38.36 0,22.574 9.283,38.954 18.261,54.795 2.091,3.69 4.254,7.506 6.209,11.271 3.162,6.087 3.329,13.088 0.46,19.208-4.505,9.604-6.603,18.372-6.603,27.593 0,11.667 5.126,22.478 14.503,30.732-0.019,0.31-0.027,0.619-0.027,0.927v25.039c0,9.19 7.477,16.667 16.667,16.667h44.22c9.19,0 16.667-7.477 16.667-16.667v-25.039c0-0.309-0.009-0.617-0.027-0.928 9.377-8.254 14.503-19.065 14.503-30.731 0-9.221-2.098-17.989-6.602-27.593-2.872-6.122-2.705-13.122 0.457-19.208z"/> </g>
</svg>