<!DOCTYPE svg PUBLIC "-//W3C//DTD SVG 1.1//EN" "http://www.w3.org/Graphics/SVG/1.1/DTD/svg11.dtd">
<!-- Uploaded to: SVG Repo, www.svgrepo.com, Transformed by: SVG Repo Mixer Tools -->
<svg width="800px" height="800px" viewBox="-2.4 -2.4 28.80 28.80" fill="none" xmlns="http://www.w3.org/2000/svg">
<g id="SVGRepo_bgCarrier" stroke-width="0">
<path transform="translate(-2.4, -2.4), scale(0.8999999999999999)" d="M16,27.79549756007535C18.830805752616044,27.861993946200528,21.882003884448324,28.902886866543348,24.27706907170099,27.39240822478036C26.712852652786246,25.856250004633303,27.397951599305514,22.730706509119837,28.343776664464656,20.010736164184692C29.310875839695772,17.229586484251772,30.69438499652418,14.321500914792022,29.797510695190745,11.516917016148348C28.89927114888488,8.708063908250166,26.01122738630431,7.235402022430872,23.680573272460503,5.428597808931251C21.26177855289816,3.5534639291603822,19.060452084141744,0.8387172051744601,16.000000000000004,0.8206063487700064C12.93592096218912,0.8024740291191815,10.538080879437066,3.295794019863827,8.25309682861665,5.337302535267156C6.183728075532278,7.186170552273433,4.538034693202411,9.362119489208894,3.5411782923521606,11.951883435331123C2.4955228441881596,14.668423929440078,1.6281313546171576,17.61011846772161,2.45470065146071,20.401134549711166C3.29182955458547,23.22780648180655,5.4131384450647495,25.597517693372478,8.000714247845323,27.010072285948347C10.41137029626892,28.32604659234833,13.254295891053808,27.731000234377447,16,27.79549756007535" fill="#fe7216" strokewidth="0"/>
</g>
<g id="SVGRepo_tracerCarrier" stroke-linecap="round" stroke-linejoin="round"/>
<g id="SVGRepo_iconCarrier"> <circle cx="5" cy="12" r="2" stroke="#2e2e2e" stroke-width="1.5"/> <circle cx="12" cy="12" r="2" stroke="#2e2e2e" stroke-width="1.5"/> <circle cx="19" cy="12" r="2" stroke="#2e2e2e" stroke-width="1.5"/> </g>
</svg>