<!DOCTYPE svg PUBLIC "-//W3C//DTD SVG 1.1//EN" "http://www.w3.org/Graphics/SVG/1.1/DTD/svg11.dtd">
<!-- Uploaded to: SVG Repo, www.svgrepo.com, Transformed by: SVG Repo Mixer Tools -->
<svg height="192px" width="192px" version="1.1" id="Layer_1" xmlns="http://www.w3.org/2000/svg" xmlns:xlink="http://www.w3.org/1999/xlink" viewBox="-51.2 -51.2 614.39 614.39" xml:space="preserve" fill="#000000" stroke="#000000" stroke-width="13.823676">
<g id="SVGRepo_bgCarrier" stroke-width="0">
<path transform="translate(-51.2, -51.2), scale(19.1996875)" d="M16,31.04172621294856C20.128293781316973,31.01082722825127,21.10885029526942,25.353595086769662,23.745534169592425,22.176857382929327C26.51212077342408,18.843609866638353,31.738570921222465,16.803235777545815,31.402457148177994,12.484489666354454C31.04413636819379,7.88040438565074,26.642758758100342,4.4504644984135275,22.25409314013751,3.013241778348192C18.42127661219474,1.758051368476336,14.574928928263695,3.7802400456428593,11.106112931551891,5.837738789958834C8.11265305144693,7.613284091385762,5.329306629452077,9.998034456433082,4.705422890137106,13.422086478677432C4.1080963524681895,16.700384998672824,6.309389535751628,19.48852635711616,8.10769690879675,22.293901692228925C10.337528348071913,25.772458370005822,11.868226960388306,31.072651238803417,16,31.04172621294856" fill="#fb810e" strokewidth="0"/>
</g>
<g id="SVGRepo_tracerCarrier" stroke-linecap="round" stroke-linejoin="round" stroke="#212121" stroke-width="24.575423999999998"> <path style="fill:#ffffff;" d="M452.052,362.789l-14.75-224.823c-0.375-5.609-5.031-9.968-10.64-9.968H10.671 C4.78,127.998,0,132.78,0,138.67v341.319c0,5.891,4.781,10.672,10.671,10.672h437.24c0.016,0,0.047,0,0.078,0 c35.297,0,63.999-28.717,63.999-63.998C511.988,392.74,485.458,364.898,452.052,362.789z"/> <g style="opacity:0.1;"> <path style="fill:#000000;" d="M88.451,173.793c-4.156,4.156-4.156,10.906,0,15.077c4.172,4.172,10.922,4.172,15.094,0 c4.156-4.171,4.156-10.921,0-15.077C99.372,169.621,92.622,169.621,88.451,173.793z"/> <path style="fill:#000000;" d="M173.792,173.793c-4.171,4.156-4.171,10.906,0,15.077c4.156,4.172,10.906,4.172,15.078,0 c4.171-4.171,4.171-10.921,0-15.077C184.699,169.621,177.949,169.621,173.792,173.793z"/> <path style="fill:#000000;" d="M259.118,173.793c-4.171,4.156-4.171,10.906,0,15.077c4.172,4.172,10.922,4.172,15.078,0 c4.172-4.171,4.172-10.921,0-15.077C270.04,169.621,263.29,169.621,259.118,173.793z"/> <path style="fill:#000000;" d="M45.795,216.449c-4.171,4.171-4.171,10.921,0,15.093c4.156,4.156,10.906,4.156,15.078,0 c4.171-4.171,4.171-10.921,0-15.093C56.702,212.292,49.952,212.292,45.795,216.449z"/> <path style="fill:#000000;" d="M88.451,259.119c-4.156,4.156-4.156,10.922,0,15.078c4.172,4.172,10.922,4.172,15.094,0 c4.156-4.156,4.156-10.922,0-15.078C99.372,254.948,92.622,254.948,88.451,259.119z"/> <path style="fill:#000000;" d="M131.121,216.449c-4.171,4.171-4.171,10.921,0,15.093c4.172,4.156,10.922,4.156,15.078,0 c4.171-4.171,4.171-10.921,0-15.093C142.043,212.292,135.293,212.292,131.121,216.449z"/> <path style="fill:#000000;" d="M173.792,259.119c-4.171,4.156-4.171,10.922,0,15.078c4.156,4.172,10.906,4.172,15.078,0 c4.171-4.156,4.171-10.922,0-15.078C184.699,254.948,177.949,254.948,173.792,259.119z"/> <path style="fill:#000000;" d="M216.448,216.449c-4.156,4.171-4.156,10.921,0,15.093c4.172,4.156,10.922,4.156,15.094,0 c4.156-4.171,4.156-10.921,0-15.093C227.369,212.292,220.619,212.292,216.448,216.449z"/> <path style="fill:#000000;" d="M259.118,259.119c-4.171,4.156-4.171,10.922,0,15.078c4.172,4.172,10.922,4.172,15.078,0 c4.172-4.156,4.172-10.922,0-15.078C270.04,254.948,263.29,254.948,259.118,259.119z"/> <path style="fill:#000000;" d="M301.79,216.449c-4.172,4.171-4.172,10.921,0,15.093c4.156,4.156,10.906,4.156,15.078,0 c4.172-4.171,4.172-10.921,0-15.093C312.696,212.292,305.946,212.292,301.79,216.449z"/> <path style="fill:#000000;" d="M45.795,301.791c-4.171,4.154-4.171,10.904,0,15.076c4.156,4.172,10.906,4.172,15.078,0 c4.171-4.172,4.171-10.922,0-15.076C56.702,297.619,49.952,297.619,45.795,301.791z"/> <path style="fill:#000000;" d="M88.451,344.445c-4.156,4.172-4.156,10.922,0,15.094c4.172,4.156,10.922,4.156,15.094,0 c4.156-4.172,4.156-10.922,0-15.094C99.372,340.289,92.622,340.289,88.451,344.445z"/> <path style="fill:#000000;" d="M131.121,301.791c-4.171,4.154-4.171,10.904,0,15.076c4.172,4.172,10.922,4.172,15.078,0 c4.171-4.172,4.171-10.922,0-15.076C142.043,297.619,135.293,297.619,131.121,301.791z"/> <path style="fill:#000000;" d="M173.792,344.445c-4.171,4.172-4.171,10.922,0,15.094c4.156,4.156,10.906,4.156,15.078,0 c4.171-4.172,4.171-10.922,0-15.094C184.699,340.289,177.949,340.289,173.792,344.445z"/> <path style="fill:#000000;" d="M216.448,301.791c-4.156,4.154-4.156,10.904,0,15.076c4.172,4.172,10.922,4.172,15.094,0 c4.156-4.172,4.156-10.922,0-15.076C227.369,297.619,220.619,297.619,216.448,301.791z"/> <path style="fill:#000000;" d="M259.118,344.445c-4.171,4.172-4.171,10.922,0,15.094c4.172,4.156,10.922,4.156,15.078,0 c4.172-4.172,4.172-10.922,0-15.094C270.04,340.289,263.29,340.289,259.118,344.445z"/> <path style="fill:#000000;" d="M301.79,301.791c-4.172,4.154-4.172,10.904,0,15.076c4.156,4.172,10.906,4.172,15.078,0 s4.172-10.922,0-15.076C312.696,297.619,305.946,297.619,301.79,301.791z"/> <path style="fill:#000000;" d="M45.795,387.115c-4.171,4.172-4.171,10.922,0,15.078c4.156,4.172,10.906,4.172,15.078,0 c4.171-4.156,4.171-10.906,0-15.078C56.702,382.945,49.952,382.945,45.795,387.115z"/> <path style="fill:#000000;" d="M88.451,429.787c-4.156,4.156-4.156,10.906,0,15.078c4.172,4.172,10.922,4.172,15.094,0 c4.156-4.172,4.156-10.922,0-15.078C99.372,425.615,92.622,425.615,88.451,429.787z"/> <path style="fill:#000000;" d="M344.444,173.793c-4.155,4.156-4.155,10.906,0,15.077c4.172,4.172,10.922,4.172,15.094,0 c4.156-4.171,4.156-10.921,0-15.077C355.366,169.621,348.616,169.621,344.444,173.793z"/> <path style="fill:#000000;" d="M344.444,259.119c-4.155,4.156-4.155,10.922,0,15.078c4.172,4.172,10.922,4.172,15.094,0 c4.156-4.156,4.156-10.922,0-15.078C355.366,254.948,348.616,254.948,344.444,259.119z"/> <path style="fill:#000000;" d="M344.444,344.445c-4.155,4.172-4.155,10.922,0,15.094c4.172,4.156,10.922,4.156,15.094,0 c4.156-4.172,4.156-10.922,0-15.094C355.366,340.289,348.616,340.289,344.444,344.445z"/> <path style="fill:#000000;" d="M344.444,429.787c-4.155,4.156-4.155,10.906,0,15.078c4.172,4.172,10.922,4.172,15.094,0 c4.156-4.172,4.156-10.922,0-15.078C355.366,425.615,348.616,425.615,344.444,429.787z"/> <path style="fill:#000000;" d="M131.121,387.115c-4.171,4.172-4.171,10.922,0,15.078c4.172,4.172,10.922,4.172,15.078,0 c4.171-4.156,4.171-10.906,0-15.078C142.043,382.945,135.293,382.945,131.121,387.115z"/> <path style="fill:#000000;" d="M173.792,429.787c-4.171,4.156-4.171,10.906,0,15.078c4.156,4.172,10.906,4.172,15.078,0 c4.171-4.172,4.171-10.922,0-15.078C184.699,425.615,177.949,425.615,173.792,429.787z"/> <path style="fill:#000000;" d="M216.448,387.115c-4.156,4.172-4.156,10.922,0,15.078c4.172,4.172,10.922,4.172,15.094,0 c4.156-4.156,4.156-10.906,0-15.078C227.369,382.945,220.619,382.945,216.448,387.115z"/> <path style="fill:#000000;" d="M259.118,429.787c-4.171,4.156-4.171,10.906,0,15.078c4.172,4.172,10.922,4.172,15.078,0 c4.172-4.172,4.172-10.922,0-15.078C270.04,425.615,263.29,425.615,259.118,429.787z"/> <path style="fill:#000000;" d="M301.79,387.115c-4.172,4.172-4.172,10.922,0,15.078c4.156,4.172,10.906,4.172,15.078,0 c4.172-4.156,4.172-10.906,0-15.078C312.696,382.945,305.946,382.945,301.79,387.115z"/> <path style="fill:#000000;" d="M429.786,429.787c-4.171,4.156-4.171,10.906,0,15.078c4.156,4.172,10.906,4.172,15.078,0 s4.172-10.922,0-15.078C440.692,425.615,433.942,425.615,429.786,429.787z"/> </g> <g> <path style="fill:#fcfcfc;" d="M511.988,426.662L511.988,426.662L511.988,426.662z"/> <path style="fill:#fcfcfc;" d="M383.991,426.662L383.991,426.662L383.991,426.662z"/> <path style="fill:#fcfcfc;" d="M447.989,21.327c-35.296,0-63.998,28.718-63.998,63.999v341.335 c0-35.344,28.655-63.998,63.998-63.998c35.344,0,63.999,28.654,63.999,63.998V85.327C511.988,50.046,483.286,21.327,447.989,21.327 z"/> </g> </g>
<g id="SVGRepo_iconCarrier"> <path style="fill:#ffffff;" d="M452.052,362.789l-14.75-224.823c-0.375-5.609-5.031-9.968-10.64-9.968H10.671 C4.78,127.998,0,132.78,0,138.67v341.319c0,5.891,4.781,10.672,10.671,10.672h437.24c0.016,0,0.047,0,0.078,0 c35.297,0,63.999-28.717,63.999-63.998C511.988,392.74,485.458,364.898,452.052,362.789z"/> <g style="opacity:0.1;"> <path style="fill:#000000;" d="M88.451,173.793c-4.156,4.156-4.156,10.906,0,15.077c4.172,4.172,10.922,4.172,15.094,0 c4.156-4.171,4.156-10.921,0-15.077C99.372,169.621,92.622,169.621,88.451,173.793z"/> <path style="fill:#000000;" d="M173.792,173.793c-4.171,4.156-4.171,10.906,0,15.077c4.156,4.172,10.906,4.172,15.078,0 c4.171-4.171,4.171-10.921,0-15.077C184.699,169.621,177.949,169.621,173.792,173.793z"/> <path style="fill:#000000;" d="M259.118,173.793c-4.171,4.156-4.171,10.906,0,15.077c4.172,4.172,10.922,4.172,15.078,0 c4.172-4.171,4.172-10.921,0-15.077C270.04,169.621,263.29,169.621,259.118,173.793z"/> <path style="fill:#000000;" d="M45.795,216.449c-4.171,4.171-4.171,10.921,0,15.093c4.156,4.156,10.906,4.156,15.078,0 c4.171-4.171,4.171-10.921,0-15.093C56.702,212.292,49.952,212.292,45.795,216.449z"/> <path style="fill:#000000;" d="M88.451,259.119c-4.156,4.156-4.156,10.922,0,15.078c4.172,4.172,10.922,4.172,15.094,0 c4.156-4.156,4.156-10.922,0-15.078C99.372,254.948,92.622,254.948,88.451,259.119z"/> <path style="fill:#000000;" d="M131.121,216.449c-4.171,4.171-4.171,10.921,0,15.093c4.172,4.156,10.922,4.156,15.078,0 c4.171-4.171,4.171-10.921,0-15.093C142.043,212.292,135.293,212.292,131.121,216.449z"/> <path style="fill:#000000;" d="M173.792,259.119c-4.171,4.156-4.171,10.922,0,15.078c4.156,4.172,10.906,4.172,15.078,0 c4.171-4.156,4.171-10.922,0-15.078C184.699,254.948,177.949,254.948,173.792,259.119z"/> <path style="fill:#000000;" d="M216.448,216.449c-4.156,4.171-4.156,10.921,0,15.093c4.172,4.156,10.922,4.156,15.094,0 c4.156-4.171,4.156-10.921,0-15.093C227.369,212.292,220.619,212.292,216.448,216.449z"/> <path style="fill:#000000;" d="M259.118,259.119c-4.171,4.156-4.171,10.922,0,15.078c4.172,4.172,10.922,4.172,15.078,0 c4.172-4.156,4.172-10.922,0-15.078C270.04,254.948,263.29,254.948,259.118,259.119z"/> <path style="fill:#000000;" d="M301.79,216.449c-4.172,4.171-4.172,10.921,0,15.093c4.156,4.156,10.906,4.156,15.078,0 c4.172-4.171,4.172-10.921,0-15.093C312.696,212.292,305.946,212.292,301.79,216.449z"/> <path style="fill:#000000;" d="M45.795,301.791c-4.171,4.154-4.171,10.904,0,15.076c4.156,4.172,10.906,4.172,15.078,0 c4.171-4.172,4.171-10.922,0-15.076C56.702,297.619,49.952,297.619,45.795,301.791z"/> <path style="fill:#000000;" d="M88.451,344.445c-4.156,4.172-4.156,10.922,0,15.094c4.172,4.156,10.922,4.156,15.094,0 c4.156-4.172,4.156-10.922,0-15.094C99.372,340.289,92.622,340.289,88.451,344.445z"/> <path style="fill:#000000;" d="M131.121,301.791c-4.171,4.154-4.171,10.904,0,15.076c4.172,4.172,10.922,4.172,15.078,0 c4.171-4.172,4.171-10.922,0-15.076C142.043,297.619,135.293,297.619,131.121,301.791z"/> <path style="fill:#000000;" d="M173.792,344.445c-4.171,4.172-4.171,10.922,0,15.094c4.156,4.156,10.906,4.156,15.078,0 c4.171-4.172,4.171-10.922,0-15.094C184.699,340.289,177.949,340.289,173.792,344.445z"/> <path style="fill:#000000;" d="M216.448,301.791c-4.156,4.154-4.156,10.904,0,15.076c4.172,4.172,10.922,4.172,15.094,0 c4.156-4.172,4.156-10.922,0-15.076C227.369,297.619,220.619,297.619,216.448,301.791z"/> <path style="fill:#000000;" d="M259.118,344.445c-4.171,4.172-4.171,10.922,0,15.094c4.172,4.156,10.922,4.156,15.078,0 c4.172-4.172,4.172-10.922,0-15.094C270.04,340.289,263.29,340.289,259.118,344.445z"/> <path style="fill:#000000;" d="M301.79,301.791c-4.172,4.154-4.172,10.904,0,15.076c4.156,4.172,10.906,4.172,15.078,0 s4.172-10.922,0-15.076C312.696,297.619,305.946,297.619,301.79,301.791z"/> <path style="fill:#000000;" d="M45.795,387.115c-4.171,4.172-4.171,10.922,0,15.078c4.156,4.172,10.906,4.172,15.078,0 c4.171-4.156,4.171-10.906,0-15.078C56.702,382.945,49.952,382.945,45.795,387.115z"/> <path style="fill:#000000;" d="M88.451,429.787c-4.156,4.156-4.156,10.906,0,15.078c4.172,4.172,10.922,4.172,15.094,0 c4.156-4.172,4.156-10.922,0-15.078C99.372,425.615,92.622,425.615,88.451,429.787z"/> <path style="fill:#000000;" d="M344.444,173.793c-4.155,4.156-4.155,10.906,0,15.077c4.172,4.172,10.922,4.172,15.094,0 c4.156-4.171,4.156-10.921,0-15.077C355.366,169.621,348.616,169.621,344.444,173.793z"/> <path style="fill:#000000;" d="M344.444,259.119c-4.155,4.156-4.155,10.922,0,15.078c4.172,4.172,10.922,4.172,15.094,0 c4.156-4.156,4.156-10.922,0-15.078C355.366,254.948,348.616,254.948,344.444,259.119z"/> <path style="fill:#000000;" d="M344.444,344.445c-4.155,4.172-4.155,10.922,0,15.094c4.172,4.156,10.922,4.156,15.094,0 c4.156-4.172,4.156-10.922,0-15.094C355.366,340.289,348.616,340.289,344.444,344.445z"/> <path style="fill:#000000;" d="M344.444,429.787c-4.155,4.156-4.155,10.906,0,15.078c4.172,4.172,10.922,4.172,15.094,0 c4.156-4.172,4.156-10.922,0-15.078C355.366,425.615,348.616,425.615,344.444,429.787z"/> <path style="fill:#000000;" d="M131.121,387.115c-4.171,4.172-4.171,10.922,0,15.078c4.172,4.172,10.922,4.172,15.078,0 c4.171-4.156,4.171-10.906,0-15.078C142.043,382.945,135.293,382.945,131.121,387.115z"/> <path style="fill:#000000;" d="M173.792,429.787c-4.171,4.156-4.171,10.906,0,15.078c4.156,4.172,10.906,4.172,15.078,0 c4.171-4.172,4.171-10.922,0-15.078C184.699,425.615,177.949,425.615,173.792,429.787z"/> <path style="fill:#000000;" d="M216.448,387.115c-4.156,4.172-4.156,10.922,0,15.078c4.172,4.172,10.922,4.172,15.094,0 c4.156-4.156,4.156-10.906,0-15.078C227.369,382.945,220.619,382.945,216.448,387.115z"/> <path style="fill:#000000;" d="M259.118,429.787c-4.171,4.156-4.171,10.906,0,15.078c4.172,4.172,10.922,4.172,15.078,0 c4.172-4.172,4.172-10.922,0-15.078C270.04,425.615,263.29,425.615,259.118,429.787z"/> <path style="fill:#000000;" d="M301.79,387.115c-4.172,4.172-4.172,10.922,0,15.078c4.156,4.172,10.906,4.172,15.078,0 c4.172-4.156,4.172-10.906,0-15.078C312.696,382.945,305.946,382.945,301.79,387.115z"/> <path style="fill:#000000;" d="M429.786,429.787c-4.171,4.156-4.171,10.906,0,15.078c4.156,4.172,10.906,4.172,15.078,0 s4.172-10.922,0-15.078C440.692,425.615,433.942,425.615,429.786,429.787z"/> </g> <g> <path style="fill:#fcfcfc;" d="M511.988,426.662L511.988,426.662L511.988,426.662z"/> <path style="fill:#fcfcfc;" d="M383.991,426.662L383.991,426.662L383.991,426.662z"/> <path style="fill:#fcfcfc;" d="M447.989,21.327c-35.296,0-63.998,28.718-63.998,63.999v341.335 c0-35.344,28.655-63.998,63.998-63.998c35.344,0,63.999,28.654,63.999,63.998V85.327C511.988,50.046,483.286,21.327,447.989,21.327 z"/> </g> </g>
</svg>